<svg xmlns="http://www.w3.org/2000/svg" viewBox="0 0 64 80" x="0px" y="0px"><title>charity and donation</title><path d="M47.11,30.55l0,0-12.82,12A2,2,0,0,0,33.63,44V62a2,2,0,0,0,4,0V44.88L49.84,33.47h0a1.54,1.54,0,0,1,2.15.08,1.47,1.47,0,0,1,.32.5.19.19,0,0,0,0,.08,1.5,1.5,0,0,1-.4,1.58h0l-6.26,5.84a2,2,0,0,0,2.74,2.93l6.23-5.83,0,0a5.5,5.5,0,0,0,1.59-5.31l.81-13.26a1.08,1.08,0,0,1,.3-.65,1.18,1.18,0,0,1,.86-.32,1.22,1.22,0,0,1,.84.38,1.32,1.32,0,0,1,.25.37c0,.12,0,.3.06.41l-.16,19.33L45.06,52.8a2,2,0,0,0-.63,1.47V62a2,2,0,0,0,4,0V55.13L62.57,41.92a2,2,0,0,0,.63-1.44l.17-20.3a1.48,1.48,0,0,0,0-.21,5.75,5.75,0,0,0-.21-1.24,5.14,5.14,0,0,0-1.16-2,5.22,5.22,0,0,0-3.63-1.65,5.15,5.15,0,0,0-3.73,1.4,5.09,5.09,0,0,0-1.54,3.05c0,.06,0,.11,0,.17l-.58,9.61A5.51,5.51,0,0,0,47.11,30.55Z"/><path d="M1.43,41.92,15.57,55.13V62a2,2,0,0,0,4,0V54.27a2,2,0,0,0-.63-1.47L4.79,39.58,4.63,20.25c0-.11,0-.26,0-.32a1.14,1.14,0,0,1,.27-.46,1.22,1.22,0,0,1,.84-.38,1.15,1.15,0,0,1,.86.33,1,1,0,0,1,.3.64l.81,13.26a5.5,5.5,0,0,0,1.59,5.31l0,0,6.23,5.83a2,2,0,0,0,2.74-2.93l-6.26-5.84h0a1.5,1.5,0,0,1-.4-1.58.19.19,0,0,0,0-.08,1.74,1.74,0,0,1,.31-.5,1.54,1.54,0,0,1,2.16-.08h0L26.37,44.88V62a2,2,0,0,0,4,0V44a2,2,0,0,0-.64-1.46l-12.82-12,0,0a5.51,5.51,0,0,0-5.38-1.23l-.58-9.61c0-.06,0-.11,0-.17a5.09,5.09,0,0,0-1.54-3.05A5.21,5.21,0,0,0,2,16.74a5.14,5.14,0,0,0-1.16,2A5.75,5.75,0,0,0,.64,20a1.48,1.48,0,0,0,0,.21L.8,40.48A2,2,0,0,0,1.43,41.92Z"/><path d="M30.58,33.3a2,2,0,0,0,1.42.59,2,2,0,0,0,1.41-.59L48.27,18.45a10.8,10.8,0,0,0,0-15.29A10.8,10.8,0,0,0,33,3.16l-1,1-1-1a10.8,10.8,0,0,0-18.43,7.65,10.68,10.68,0,0,0,3.16,7.63ZM18.55,6a6.81,6.81,0,0,1,9.62,0l2.41,2.42a2,2,0,0,0,2.83,0L35.83,6a6.8,6.8,0,0,1,11.61,4.82,6.67,6.67,0,0,1-2,4.8L32,29.06,18.55,15.61a6.81,6.81,0,0,1,0-9.62Z"/><text x="0" y="79" fill="#000000" font-size="5px" font-weight="bold" font-family="'Helvetica Neue', Helvetica, Arial-Unicode, Arial, Sans-serif">Created by Lagot Design</text><text x="0" y="84" fill="#000000" font-size="5px" font-weight="bold" font-family="'Helvetica Neue', Helvetica, Arial-Unicode, Arial, Sans-serif">from the Noun Project</text></svg>